<svg xmlns="http://www.w3.org/2000/svg" viewBox="0 0 512 512" role="img" aria-label="週間献立プランアイコン">
  <rect width="512" height="512" rx="104" fill="#2f8b5b"/>
  <path d="M112 150c76-44 171-45 247-2 33 18 58 44 75 72-68-24-139-16-203 21-48 28-86 70-111 124-24-80-16-156-8-215z" fill="#55b96f"/>
  <path d="M145 164c69 4 128 33 174 86-63-7-119 9-169 46-8-45-10-89-5-132z" fill="#dbea78"/>
  <path d="M115 330c72 48 202 62 288 3" fill="none" stroke="#fffef9" stroke-width="30" stroke-linecap="round"/>
  <path d="M151 298c70 28 143 29 214 0" fill="none" stroke="#edf7df" stroke-width="24" stroke-linecap="round"/>
  <path d="M344 124l58 58" stroke="#f0c85d" stroke-width="18" stroke-linecap="round"/>
  <path d="M380 104l58 58" stroke="#f0c85d" stroke-width="18" stroke-linecap="round"/>
  <circle cx="371" cy="352" r="18" fill="#d77762"/>
</svg>
